<svg xmlns="http://www.w3.org/2000/svg" viewBox="0 0 289.52 44.41"><defs><style>.cls-1{fill:#0068b7;}.cls-1,.cls-2{fill-rule:evenodd;}.cls-2{fill:#fff;}</style></defs><title>资源 3</title><g id="图层_2" data-name="图层 2"><g id="图层_1-2" data-name="图层 1"><path class="cls-1" d="M263.19,0h20.54a5.7,5.7,0,0,1,5.67,5.69V26.27A5.7,5.7,0,0,1,283.73,32H263.19a5.7,5.7,0,0,1-5.67-5.69V5.69A5.7,5.7,0,0,1,263.19,0Z"/><path class="cls-2" d="M272.35,10.57h17.17v4.19H272.23c-2.64.77-4.25,8.07.43,10.08l10.43,0c1.58-.23,1.5-3.29,0-3.18h-6.29c-2.31-.07-2.38-3.91,0-4.09h6.64c5.53.19,5.36,10.94.52,11.46H272.2a5.27,5.27,0,0,1-2.16-.92c-6.2-4.81-4.53-13.49-.05-16.57a4,4,0,0,1,2.36-1Zm-11.86,0c-1.95.24-2.14,3.83,0,4.17l4.8,0a7.41,7.41,0,0,1,3.1-4.19Zm7-7.31h19.21a.77.77,0,0,1,.72.81V6.75a.78.78,0,0,1-.72.82H267.45a.77.77,0,0,1-.71-.82V4.06A.77.77,0,0,1,267.45,3.25Z"/><path class="cls-2" d="M145.49,31.18h9.43c1.06-6.64,2.11-13.38,3.17-20a3.42,3.42,0,0,1,1.39-2.37,3.28,3.28,0,0,1,2-.67h6.76l3.37-5.72h-12.7A11.51,11.51,0,0,0,152.17,5,10.22,10.22,0,0,0,148.7,11l-3.21,20.15ZM4.58,2.4,3.67,8.12l5.18,3.53L2.57,15,0,31.18H9.42L14,2.4Zm13.25,0H38.5a7.13,7.13,0,0,1,6.84,7.9c-1.08,7-2.18,13.93-3.29,20.88H32.63l3.19-20.06a2.57,2.57,0,0,0-.51-2.2,2.38,2.38,0,0,0-1.88-.8H26.34L22.68,31.18H13.26L17.83,2.4Zm29,23.05-.9,5.72H67A10.17,10.17,0,0,0,73.05,29a10.44,10.44,0,0,0,2.84-3.47,10.13,10.13,0,0,0,1-3.18,8.22,8.22,0,0,0-.08-2.82,7,7,0,0,0-6.66-5.59H60.08a2.42,2.42,0,0,1-2.4-2.41,3.68,3.68,0,0,1,.49-1.66A3.31,3.31,0,0,1,61,8.12H78.35l.93-5.73h-21a10.3,10.3,0,0,0-8.67,5,9.71,9.71,0,0,0-1.39,4.25,8.2,8.2,0,0,0,.48,3.56,7,7,0,0,0,6.52,4.41h9.81a2.37,2.37,0,0,1,1.61.57,2.62,2.62,0,0,1,.78,2.19,3.77,3.77,0,0,1-1.11,2.14,3,3,0,0,1-2.16.9l-17.39,0ZM83.13,2.39h21.52a7.08,7.08,0,0,1,5.79,2.4,6.79,6.79,0,0,1,1.41,2.37,7.17,7.17,0,0,1,.28,3.6c-.63,4.13-1.28,8-1.94,12.14A10.17,10.17,0,0,1,107,28.52a10,10,0,0,1-2.42,1.63,10.7,10.7,0,0,1-4.42,1h-8a10.23,10.23,0,0,1-4-.67q-.8,5.35-1.58,10.72l-10,3.18L81.16,15l6.25-3.31L82.19,8.11l.94-5.72Zm8.5,5.73L88.88,25.43c2.92,0,5.7,0,8.58,0a3.77,3.77,0,0,0,1-.11,3.36,3.36,0,0,0,1.15-.62,3.5,3.5,0,0,0,1.29-2.07q.9-5.61,1.79-11.2a3.78,3.78,0,0,0,0-1.71,2.66,2.66,0,0,0-.47-.82,2.24,2.24,0,0,0-1.79-.79Zm25.7-5.73h9.44l-3.09,19.29c-.28,1.62-.17,2.19.31,2.83a2.4,2.4,0,0,0,1.91.91h7.15l3.66-23h9.43l-4.58,28.79H121.15a7.13,7.13,0,0,1-5.61-2.7,7.38,7.38,0,0,1-1.36-6.23C115.26,15.59,116.26,9.06,117.33,2.39Z"/><path class="cls-2" d="M179.6.53a52.46,52.46,0,0,1,8,4.46c0,1.75,0,3.09,0,4.88a52,52,0,0,0-8-4.44c0-1.61,0-3.3,0-4.9Zm46.06,1.85h3.89V.55h3.82V2.38h3.88V5.14l-3.86,0V7.33h1.48a2.63,2.63,0,0,1,1.61.63,2.59,2.59,0,0,1,.8,1.85v11l-3.89,0v2.75h3.88v2.7h-3.87v3.51l-3.82,1.4V26.23h-3.88V23.55h3.88V20.81h-3.87l0-13.53h3.89V5.15h-3.89V2.38ZM229.47,10v2.72h3.93V10Zm0,5.42v2.7h3.93v-2.7Zm9.7-10.3V2.39c2.84,0,5.48,0,8.32,0A2.45,2.45,0,0,1,249,3a2.55,2.55,0,0,1,.82,2c0,3.77,0,7.47,0,11.17,0,4.06,0,8.12,0,12.25a2.94,2.94,0,0,1-.85,1.94,2.88,2.88,0,0,1-1.85.81h-3.09V28.47h1.05a.87.87,0,0,0,.91-.87V20.22H243c0,2.09-.11,4-.18,5.92-.05,1.16-.09,2.35-.15,3.6-1.33.46-2.57.94-3.89,1.41.27-4.84.35-9.55.39-14.29,0-3.53.08-7.08,0-10.7H243V10h3V5.13ZM243,12.68v4.85H246V12.68ZM215.73,7.36a56.09,56.09,0,0,1,8,4.41c0,1.75,0,3.15,0,4.89a56.93,56.93,0,0,0-8-4.43c0-1.6,0-3.26,0-4.87Zm0-6.82c0,1.6,0,3.3,0,4.91a47,47,0,0,1,8,4.44c0-1.75,0-3.16,0-4.91a52.92,52.92,0,0,0-8-4.44ZM197.59,2.39V.56h5.68V2.39h5.29a2.85,2.85,0,0,1,2.72,2.79c0,2.77.05,5.5,0,8.26a2.84,2.84,0,0,1-2.76,2.83H195.23v1.26h3.83c1,1.25,2.23,2.46,3.26,3.48a42.77,42.77,0,0,0,3.37-3.49h5.8a47.6,47.6,0,0,1-5.9,6.56c2.56,2.3,5.41,4.66,8.15,7.07-2.52,0-5,0-7.49,0-3.63-3.46-7.42-7.34-11-11.54,0,2.82,0,5.24,0,8,0,.52.44.86,1.06.85h3.37l-1,2.72h-6.26a2.87,2.87,0,0,1-2.81-2.85l0-25.95Zm-2.35,2.77V8h8.85l-1,2.7h-7.88v2.81l9.58,0a.85.85,0,0,0,.84-.89c0-2.39,0-4.31,0-6.7a.85.85,0,0,0-.87-.79ZM223.73,17.7c0,2.32,0,4.71,0,6.88-.92.94-1.84,1.8-2.76,2.6a50.93,50.93,0,0,1-5.18,4c0-2.15,0-4,0-5.92.58-.41,1.18-.83,1.75-1.28a39.53,39.53,0,0,0,6.2-6.26Zm-36.11,0c0,2.63,0,4.63,0,6.87a45.67,45.67,0,0,1-8,6.62c0-2.19,0-3.91,0-5.93a37.26,37.26,0,0,0,8-7.56Zm-8-10.34c0,1.61,0,3.27,0,4.88a53.49,53.49,0,0,1,8,4.45c0-1.74,0-3.15,0-4.9A53.58,53.58,0,0,0,179.6,7.36Z"/></g></g></svg>